<svg width="1200" height="760" viewBox="0 0 1200 760" fill="none" xmlns="http://www.w3.org/2000/svg">
  <defs>
    <linearGradient id="bgGrad" x1="120" y1="80" x2="1050" y2="690" gradientUnits="userSpaceOnUse">
      <stop stop-color="#EEF5FF"/>
      <stop offset="1" stop-color="#DCEBFF"/>
    </linearGradient>
    <linearGradient id="ringGrad" x1="0" y1="0" x2="1" y2="1">
      <stop stop-color="#1E5A98"/>
      <stop offset="1" stop-color="#0F7C8C"/>
    </linearGradient>
  </defs>
  <rect x="20" y="20" width="1160" height="720" rx="36" fill="url(#bgGrad)"/>
  <g opacity="0.25">
    <circle cx="170" cy="130" r="80" fill="#9CC2E9"/>
    <circle cx="1030" cy="620" r="90" fill="#B2D9F5"/>
  </g>
  <g>
    <rect x="235" y="450" width="730" height="70" rx="35" fill="#174A7E"/>
    <text x="600" y="493" text-anchor="middle" font-family="Segoe UI, Arial, sans-serif" font-size="28" fill="white">Shared Platform Spine</text>
  </g>
  <g>
    <circle cx="350" cy="320" r="95" fill="#FFFFFF" stroke="url(#ringGrad)" stroke-width="28"/>
    <circle cx="480" cy="320" r="95" fill="#FFFFFF" stroke="url(#ringGrad)" stroke-width="28"/>
    <circle cx="610" cy="320" r="95" fill="#FFFFFF" stroke="url(#ringGrad)" stroke-width="28"/>
    <circle cx="740" cy="320" r="95" fill="#FFFFFF" stroke="url(#ringGrad)" stroke-width="28"/>
    <circle cx="870" cy="320" r="95" fill="#FFFFFF" stroke="url(#ringGrad)" stroke-width="28"/>
    <circle cx="350" cy="320" r="26" fill="#174A7E"/>
    <circle cx="480" cy="320" r="26" fill="#174A7E"/>
    <circle cx="610" cy="320" r="26" fill="#174A7E"/>
    <circle cx="740" cy="320" r="26" fill="#174A7E"/>
    <circle cx="870" cy="320" r="26" fill="#174A7E"/>
  </g>
  <g font-family="Segoe UI, Arial, sans-serif" fill="#0E355C">
    <text x="600" y="98" text-anchor="middle" font-size="42" font-weight="700">MODYFLEX Stackable Motor Concept</text>
    <text x="600" y="140" text-anchor="middle" font-size="27">One module, scalable 1 to 5 stacks</text>
    <text x="600" y="612" text-anchor="middle" font-size="30" font-weight="600">Consistent 150-160 mm cylindrical envelope</text>
  </g>
</svg>
